<svg xmlns="http://www.w3.org/2000/svg" xmlns:xlink="http://www.w3.org/1999/xlink" width="44.965" height="44.965" viewBox="0 0 44.965 44.965"><defs><style>.a{fill:#c8232c;}.b{fill:#fff;}</style></defs><path class="a" d="M22.482,0A22.482,22.482,0,1,1,0,22.483,22.483,22.483,0,0,1,22.482,0Z"/><path class="b" d="M84.79,63.781c-7.922,0-11.914,5.5-11.914,10.085,0,2.777,1.085,5.247,3.415,6.167a.577.577,0,0,0,.835-.4l.34-1.3a.766.766,0,0,0-.239-.9,4.554,4.554,0,0,1-1.1-3.166c0-4.079,3.152-7.731,8.208-7.731,4.478,0,6.937,2.649,6.937,6.186,0,4.654-2.127,8.583-5.286,8.583a2.523,2.523,0,0,1-2.63-3.111c.5-2.043,1.473-4.251,1.473-5.727a2.19,2.19,0,0,0-2.25-2.424c-1.783,0-3.215,1.786-3.215,4.179a6.037,6.037,0,0,0,.533,2.555l-2.146,8.8a17.573,17.573,0,0,0-.049,6.134.225.225,0,0,0,.4.093,17.112,17.112,0,0,0,3.01-5.285c.205-.718,1.173-4.438,1.173-4.438a4.819,4.819,0,0,0,4.072,2.014c5.358,0,8.994-4.731,8.994-11.063C95.344,68.241,91.157,63.781,84.79,63.781Z" transform="translate(-61.628 -53.936)"/></svg>