<svg xmlns="http://www.w3.org/2000/svg" xmlns:xlink="http://www.w3.org/1999/xlink" width="51.71" height="51.709" viewBox="0 0 51.71 51.709"><defs><style>.a{fill:url(#a);}</style><linearGradient id="a" x1="0.5" x2="0.5" y2="1" gradientUnits="objectBoundingBox"><stop offset="0" stop-color="#278bed"/><stop offset="1" stop-color="#00aced"/></linearGradient></defs><circle class="a" cx="3.381" cy="3.381" r="3.381" transform="translate(22.474 22.474)"/><path class="a" d="M25.855,0A25.855,25.855,0,1,0,51.71,25.855,25.855,25.855,0,0,0,25.855,0ZM16,6.43a21.692,21.692,0,0,1,9.858-2.353c.208,0,.415,0,.621.008.343.009.578.862.527,1.892l-.264,5.305c-.051,1.031-.27,1.856-.489,1.849-.132,0-.264-.006-.4-.006a12.687,12.687,0,0,0-5.236,1.123,2.009,2.009,0,0,1-2.592-.717L15.32,8.957A1.8,1.8,0,0,1,16,6.43Zm-1.058,9.732-4-3.5a1.739,1.739,0,0,1-.111-2.575l.053-.05a1.727,1.727,0,0,1,2.558.249l3.265,4.19c.635.814.782,1.765.365,2.162S15.716,16.842,14.939,16.162Zm1.767,9.693A9.149,9.149,0,1,1,25.855,35,9.149,9.149,0,0,1,16.706,25.855ZM35.67,45.3a21.689,21.689,0,0,1-9.815,2.332q-.348,0-.692-.01c-.382-.012-.647-.868-.591-1.9l.29-5.3c.057-1.031.3-1.851.548-1.843.148,0,.3.007.446.007a12.706,12.706,0,0,0,4.84-.951,2.212,2.212,0,0,1,2.689.731l2.9,4.458A1.7,1.7,0,0,1,35.67,45.3Zm5.092-3.57a1.739,1.739,0,0,1-2.526-.285l-3.355-4.118c-.652-.8-.819-1.727-.407-2.107s1.348-.167,2.125.513l4,3.5A1.681,1.681,0,0,1,40.762,41.731Z"/></svg>