<svg xmlns="http://www.w3.org/2000/svg" width="18.108" height="15.04" viewBox="0 0 18.108 15.04"><defs><style>.a{fill:#2b2b2b;}</style></defs><g transform="translate(0 -41.674)"><g transform="translate(0 41.674)"><path class="a" d="M1.018,47.774l-.028.006H13.106L9.3,43.963a1,1,0,0,1,0-1.406l.593-.593a.991.991,0,0,1,1.4,0l6.529,6.529a1,1,0,0,1,0,1.4l-6.529,6.529a.992.992,0,0,1-1.4,0L9.3,55.832a.981.981,0,0,1-.289-.7.951.951,0,0,1,.289-.686l3.852-3.839H1a1.026,1.026,0,0,1-1-1.016v-.839A1.006,1.006,0,0,1,1.018,47.774Z" transform="translate(0 -41.674)"/></g></g></svg>