<svg xmlns="http://www.w3.org/2000/svg" width="31" height="31" viewBox="0 0 31 31"><defs><style>.a{fill:#212121;}</style></defs><path class="a" d="M9.3,24.8a3.1,3.1,0,1,0,3.1,3.1A3.109,3.109,0,0,0,9.3,24.8ZM0,0V3.1H3.1L8.68,14.88,6.51,18.6a5.507,5.507,0,0,0-.31,1.55,3.109,3.109,0,0,0,3.1,3.1H27.9v-3.1H9.92a.333.333,0,0,1-.31-.31v-.155l1.4-2.635h11.47A2.827,2.827,0,0,0,25.11,15.5L30.69,5.425A.853.853,0,0,0,31,4.65,1.464,1.464,0,0,0,29.45,3.1H6.51L5.115,0ZM24.8,24.8a3.1,3.1,0,1,0,3.1,3.1A3.109,3.109,0,0,0,24.8,24.8Z"/></svg>