<?xml version="1.0" encoding="utf-8"?>
<!-- Generator: Adobe Illustrator 16.0.0, SVG Export Plug-In . SVG Version: 6.00 Build 0)  -->
<!DOCTYPE svg PUBLIC "-//W3C//DTD SVG 1.1//EN" "http://www.w3.org/Graphics/SVG/1.1/DTD/svg11.dtd">
<svg version="1.1" id="Layer_1" xmlns="http://www.w3.org/2000/svg" xmlns:xlink="http://www.w3.org/1999/xlink" x="0px" y="0px"
	 width="12.85px" height="12.806px" viewBox="0 0 12.85 12.806" enable-background="new 0 0 12.85 12.806" xml:space="preserve">
<g>
	<path fill-rule="evenodd" clip-rule="evenodd" fill="#131418" d="M0.75,11.248c0-0.25,0-0.5,0-0.75
		c0.605-1.897,0.615-3.886,0.707-5.834C1.542,2.865,2.1,1.539,3.75,0.75c0.5,0,1,0,1.5,0c1.295,1.001,1.359,2.597,2.035,4.328
		c1.354-1.383,1.332-3.659,3.214-4.328c3.769-0.561,1.747,2.351,2.25,3.749c-0.789,1.862-0.68,3.854-0.828,5.804
		c-0.682,2.664-2.119,1.537-3.512,0.726c-3.25,1.998-4.033,1.675-4.502-1.818C3.551,12.607,3.343,12.741,0.75,11.248z"/>
	<path fill-rule="evenodd" clip-rule="evenodd" fill="#DFE6F1" d="M10.498,0.75C9.577,3.343,8.962,6.103,6.371,8.453
		C5.948,5.545,5.599,3.147,5.249,0.75C6.999,0.75,8.748,0.75,10.498,0.75z"/>
	<path fill-rule="evenodd" clip-rule="evenodd" fill="#F1EFF7" d="M3.75,0.75c-2.083,2.917-1.17,6.754-3,9.748
		c0-2.249,0.219-4.526-0.057-6.741C0.37,1.159,1.182,0.182,3.75,0.75z"/>
	<path fill-rule="evenodd" clip-rule="evenodd" fill="#9393A9" d="M0.75,11.248c3.732,1.69,2.038-2.434,3.48-3.226
		c0.744,1.188-0.37,3.239,1.411,3.827c1.615,0.533,1.615-1.527,2.576-2.152c0.988,1.007,0.797,2.025,0.032,3.051
		c-2.125,0-4.261-0.137-6.37,0.045C0.332,12.927,0.808,11.985,0.75,11.248z"/>
	<path fill-rule="evenodd" clip-rule="evenodd" fill="#CBCAEF" d="M11.139,10.186c0.407-1.932-0.028-4.103,1.609-5.687
		c0,2.375-0.132,4.76,0.047,7.12c0.116,1.546-0.81,1.071-1.547,1.129C10.646,11.918,10.871,11.053,11.139,10.186z"/>
	<path fill-rule="evenodd" clip-rule="evenodd" fill="#C4C3E2" d="M11.139,10.186c0.037,0.854,0.073,1.709,0.109,2.563
		c-1,0-1.999,0-2.999,0c-0.011-1.018-0.021-2.034-0.032-3.051c0.312-0.61,0.623-1.22,1.405-2.751c0,2.284,0,3.555,0,4.852
		C10.925,11.725,10.496,10.535,11.139,10.186z"/>
</g>
</svg>
