<svg xmlns="http://www.w3.org/2000/svg" xmlns:xlink="http://www.w3.org/1999/xlink" width="45.248" height="45.248" viewBox="0 0 45.248 45.248"><defs><style>.a{fill:url(#a);}</style><linearGradient id="a" x1="1.082" y1="-0.174" x2="-0.26" y2="1.425" gradientUnits="objectBoundingBox"><stop offset="0" stop-color="#e09b3d"/><stop offset="0.293" stop-color="#c74c4d"/><stop offset="0.6" stop-color="#c21975"/><stop offset="1" stop-color="#7024c4"/></linearGradient></defs><path class="a" d="M41.149,23.88H27.663a3.908,3.908,0,0,0-3.9,3.9V41.27a3.909,3.909,0,0,0,3.9,3.9H41.149a3.909,3.909,0,0,0,3.9-3.9V27.784A3.908,3.908,0,0,0,41.149,23.88ZM34.406,41.537a7.01,7.01,0,1,1,7.01-7.01A7.018,7.018,0,0,1,34.406,41.537Zm7.236-12.571A1.659,1.659,0,1,1,43.3,27.308,1.661,1.661,0,0,1,41.641,28.966Z" transform="translate(-11.782 -11.842)"/><path class="a" d="M40.9,36.971a4.048,4.048,0,1,0,4.048,4.047A4.053,4.053,0,0,0,40.9,36.971Z" transform="translate(-18.273 -18.333)"/><path class="a" d="M22.624,0A22.624,22.624,0,1,0,45.248,22.624,22.625,22.625,0,0,0,22.624,0ZM36.233,29.428a6.873,6.873,0,0,1-6.866,6.866H15.881a6.874,6.874,0,0,1-6.866-6.866V15.942a6.874,6.874,0,0,1,6.866-6.866H29.367a6.874,6.874,0,0,1,6.866,6.866Z"/></svg>