<svg xmlns="http://www.w3.org/2000/svg" xmlns:xlink="http://www.w3.org/1999/xlink" version="1.1" x="0px" y="0px" viewBox="0 0 100 100" style="enable-background:new 0 0 100 100;" xml:space="preserve"><g><path d="M43,28c0,0.6-0.4,1-1,1c-7.2,0-13,5.8-13,13c0,0.6-0.4,1-1,1s-1-0.4-1-1c0-8.3,6.7-15,15-15C42.6,27,43,27.4,43,28z    M80.8,80.8c-1.6,1.6-4.1,1.6-5.7,0l-16-16c-1-1-1.4-2.5-1-3.9L56,58.8c-3.7,3.3-8.7,5.2-14,5.2c-12.1,0-22-9.9-22-22   c0-12.1,9.9-22,22-22c12.1,0,22,9.9,22,22c0,5.3-1.9,10.3-5.1,14.1l2.1,2.1c1.3-0.4,2.8,0,3.9,1l16,16   C82.4,76.7,82.4,79.3,80.8,80.8z M60,42c0-9.9-8.1-18-18-18c-9.9,0-18,8.1-18,18c0,9.9,8.1,18,18,18C51.9,60,60,51.9,60,42z"></path></g></svg>