<svg xmlns="http://www.w3.org/2000/svg" xmlns:xlink="http://www.w3.org/1999/xlink" width="44.965" height="44.965" viewBox="0 0 44.965 44.965"><defs><style>.a{fill:#55acee;}.b{fill:#f1f2f2;}</style></defs><g transform="translate(-0.001)"><circle class="a" cx="22.482" cy="22.482" r="22.482" transform="translate(0.001 0)"/><g transform="translate(10.061 13.637)"><path class="b" d="M51.3,36.548a10.722,10.722,0,0,1-3.087.845,5.389,5.389,0,0,0,2.363-2.973,10.758,10.758,0,0,1-3.413,1.3A5.378,5.378,0,0,0,38,40.627a15.255,15.255,0,0,1-11.077-5.616,5.38,5.38,0,0,0,1.663,7.175,5.336,5.336,0,0,1-2.434-.673c0,.023,0,.046,0,.068a5.377,5.377,0,0,0,4.311,5.269,5.395,5.395,0,0,1-2.427.093,5.38,5.38,0,0,0,5.02,3.732A10.848,10.848,0,0,1,25.1,52.9,15.283,15.283,0,0,0,48.63,40.024c0-.233-.005-.465-.016-.695A10.9,10.9,0,0,0,51.3,36.548Z" transform="translate(-25.103 -34.028)"/></g></g></svg>